<svg xmlns="http://www.w3.org/2000/svg" viewBox="0 0 172.36 116.77"><defs><style>.cls-1{fill:#fff;}</style></defs><title>logo</title><g id="Слой_2" data-name="Слой 2"><g id="logo"><path class="cls-1" d="M96.35,63.24A39.82,39.82,0,0,1,92.93,95a40.39,40.39,0,0,1-24.87,20,40.11,40.11,0,0,1-31.6-3.34,40.39,40.39,0,0,1-20-24.87L0,30.77l16-4.7,16.49,56A23.87,23.87,0,0,0,44.22,96.84,23.88,23.88,0,0,0,63.33,98.9,24.09,24.09,0,0,0,78.15,86.85,24.13,24.13,0,0,0,80.4,67.94Z"/><path class="cls-1" d="M76,53.53a39.82,39.82,0,0,1,3.41-31.76,40.36,40.36,0,0,1,24.88-20,40.07,40.07,0,0,1,31.6,3.33,40.37,40.37,0,0,1,20,24.87l16.5,56-16,4.7-16.49-56A24.76,24.76,0,0,0,109,17.88,24.08,24.08,0,0,0,94.2,29.93,24.2,24.2,0,0,0,92,48.84Z"/></g></g></svg>